<svg width="80" height="80" viewBox="0 0 80 80" fill="none" xmlns="http://www.w3.org/2000/svg">
<circle cx="40" cy="40" r="39.5" fill="white" stroke="#EBEBEB"/>
<path d="M33.837 60.3786C32.5012 60.3062 31.2441 59.7237 30.3254 58.7513C29.2262 57.6938 28.2453 56.5199 27.4001 55.2503C26.0797 53.3595 25.036 51.29 24.3006 49.1044C23.4682 46.7529 23.0304 44.28 23.0047 41.7858C22.94 39.3384 23.5461 36.9199 24.7573 34.7922C25.6444 33.2586 26.9097 31.9779 28.4325 31.0724C29.9385 30.1707 31.657 29.6854 33.4121 29.666C34.7352 29.7443 36.0355 30.0467 37.2573 30.5604C38.2324 30.9895 39.2564 31.2912 40.3079 31.4569C41.4679 31.2139 42.6013 30.8582 43.6921 30.3947C44.983 29.8907 46.3499 29.6084 47.7349 29.5598C47.9197 29.5598 48.1024 29.5598 48.2787 29.5811C51.3166 29.6682 54.1421 31.1595 55.9266 33.6174C54.5339 34.3623 53.375 35.4788 52.5788 36.8428C51.7826 38.2068 51.3802 39.7649 51.4164 41.3439C51.4026 42.5513 51.6447 43.7479 52.127 44.8548C52.6092 45.9618 53.3206 46.954 54.2143 47.766C55.0279 48.5414 55.9754 49.1617 57.01 49.5993C56.7976 50.2367 56.5533 50.8527 56.2941 51.4731C55.7056 52.8439 54.9796 54.1514 54.1272 55.3756C53.3212 56.6019 52.3829 57.7361 51.3293 58.7576C50.3683 59.7113 49.0873 60.2738 47.7349 60.3361C46.5884 60.2853 45.4622 60.0163 44.4165 59.5437C43.2889 59.0525 42.0771 58.7834 40.8475 58.7513C39.5833 58.7762 38.3356 59.0438 37.1723 59.5394C36.1676 59.9927 35.0941 60.2749 33.9963 60.3743L33.837 60.3786ZM40.5289 29.5598C40.3696 29.5598 40.2102 29.5598 40.0509 29.5407C40.0174 29.2878 39.9996 29.0331 39.9978 28.778C40.0673 26.656 40.8966 24.6296 42.3346 23.0676C43.139 22.17 44.1139 21.4413 45.2026 20.9241C46.2171 20.4018 47.3258 20.0876 48.4635 20C48.4954 20.2783 48.4954 20.5502 48.4954 20.8094C48.4655 22.898 47.6807 24.9053 46.286 26.4603C45.6107 27.3658 44.7454 28.1125 43.7508 28.6479C42.7563 29.1834 41.6565 29.4946 40.5289 29.5598Z" fill="black"/>
</svg>
