<svg width="80" height="80" viewBox="0 0 80 80" fill="none" xmlns="http://www.w3.org/2000/svg">
<circle cx="40" cy="40" r="39.5" fill="white" stroke="#EBEBEB"/>
<path d="M58.6304 36.2788H57.1V36.2H40V43.8H50.7379C49.1713 48.2241 44.9618 51.4 40 51.4C33.7043 51.4 28.6 46.2956 28.6 40C28.6 33.7043 33.7043 28.6 40 28.6C42.906 28.6 45.5499 29.6963 47.563 31.487L52.9371 26.1129C49.5437 22.9503 45.0046 21 40 21C29.5072 21 21 29.5072 21 40C21 50.4927 29.5072 59 40 59C50.4927 59 59 50.4927 59 40C59 38.726 58.8689 37.4825 58.6304 36.2788Z" fill="#FFC107"/>
<path d="M23.1907 31.1564L29.4331 35.7345C31.1222 31.5526 35.2129 28.6 40 28.6C42.906 28.6 45.5499 29.6963 47.563 31.487L52.9371 26.1129C49.5437 22.9503 45.0046 21 40 21C32.7021 21 26.3732 25.1201 23.1907 31.1564Z" fill="#FF3D00"/>
<path d="M40 59C44.9077 59 49.367 57.1218 52.7385 54.0676L46.858 49.0915C44.8864 50.591 42.4771 51.402 40 51.4C35.0581 51.4 30.8619 48.2489 29.2811 43.8513L23.0853 48.625C26.2298 54.7782 32.6157 59 40 59Z" fill="#4CAF50"/>
<path d="M58.6304 36.2788H57.1V36.2H40V43.8H50.7379C49.9885 45.9056 48.6387 47.7455 46.8552 49.0924L46.858 49.0915L52.7385 54.0676C52.3224 54.4457 59 49.5 59 40C59 38.726 58.8689 37.4825 58.6304 36.2788Z" fill="#1976D2"/>
</svg>
