<svg width="80" height="80" viewBox="0 0 80 80" fill="none" xmlns="http://www.w3.org/2000/svg">
<circle cx="40" cy="40" r="39.5" fill="white" stroke="#EBEBEB"/>
<path d="M60.9682 28.8007C61.2826 27.7618 60.9682 27 59.4816 27H54.5568C53.3037 27 52.7311 27.6591 52.4167 28.3829C52.4167 28.3829 49.9127 34.4576 46.3646 38.3964C45.2193 39.5425 44.696 39.9045 44.0717 39.9045C43.7596 39.9045 43.3059 39.5425 43.3059 38.5037V28.8007C43.3059 27.5541 42.9444 27 41.9001 27H34.1615C33.38 27 32.9084 27.5764 32.9084 28.126C32.9084 29.3056 34.6825 29.5782 34.8644 32.9026V40.1145C34.8644 41.694 34.5792 41.9822 33.9504 41.9822C32.2819 41.9822 28.2217 35.8852 25.8121 28.9057C25.3427 27.5496 24.8689 27.0022 23.6113 27.0022H18.6888C17.2807 27.0022 17 27.6613 17 28.3852C17 29.6855 18.6685 36.1198 24.7723 44.6297C28.8415 50.4408 34.5702 53.5909 39.7892 53.5909C42.9174 53.5909 43.3037 52.8916 43.3037 51.6852V47.2928C43.3037 45.8942 43.6024 45.6127 44.5927 45.6127C45.3203 45.6127 46.5734 45.9791 49.495 48.7785C52.8321 52.0985 53.3846 53.5887 55.2597 53.5887H60.1822C61.588 53.5887 62.2909 52.8894 61.8867 51.5087C61.4443 50.1347 59.8499 48.1351 57.7344 45.7691C56.5847 44.4197 54.8667 42.9675 54.3435 42.2414C53.6136 41.3053 53.8247 40.892 54.3435 40.0609C54.3457 40.0631 60.3439 31.6582 60.9682 28.8007Z" fill="#5F83AA"/>
</svg>
